<svg xmlns="http://www.w3.org/2000/svg"  viewBox="0 0 48 48" width="48px" height="48px" baseProfile="basic"><path fill="#212121" d="M8,24c0,0,0,2.122,0,5c0,2.339,1,10,1,10c0.871,3.394,2,6,2,6v-5c0,0,0.986,4,4,8c0-2,0-3,0-3	s0.25,1,1,2v-4h15v1l0.219,4l1.531-4L34,47l2-5v3c0,0,3-8,3-13c0-4,0-8,0-8H8z"/><polygon fill="#263238" points="35,10 37,10 42,14 39,14 40,16 35,16"/><polygon fill="#2c2c2c" points="18,16 30,15.875 30,9 18,9"/><linearGradient id="U_0pdsfFeoDt-JiPYWSvAa" x1="14" x2="34" y1="34" y2="34" gradientUnits="userSpaceOnUse"><stop offset="0" stop-color="#eeb597"/><stop offset="1" stop-color="#ffd0ad"/></linearGradient><path fill="url(#U_0pdsfFeoDt-JiPYWSvAa)" d="M14,20v20.481c0,0.494,0.178,0.967,0.509,1.334c0.003,0.003,0.005,0.006,0.008,0.01	c0.3,0.33,0.701,0.74,1.147,1.175h-0.008c2.142,2.091,5.721,5,8.344,5s6.202-2.909,8.344-5h-0.008	c0.446-0.435,0.847-0.845,1.147-1.175c0.003-0.003,0.005-0.006,0.008-0.01C33.822,41.448,34,40.976,34,40.481V20H14z"/><rect width="6" height="2" x="21" y="41" fill="#bc8771"/><path fill="#bc8771" d="M22,37h4c0,0-1,2-2,2S22,37,22,37z"/><path fill="#f5e9e8" d="M31,29c-3,0-4,2-4,2l1,1h2.423C33,32,34,31,34,30C34,30,34,29,31,29z"/><circle cx="30.5" cy="30.5" r="1.5" fill="#212121"/><path fill="#212121" d="M27,31c0,0,0.875-1,6.125-1H34c0-0.5,0-2,0-2s-1.5,0-2,0C28,28,27,31,27,31z"/><polygon fill="#263238" points="34,26 28,28 26,28 29,26"/><g><path fill="#f5e9e8" d="M17,29c3,0,4,2,4,2l-1,1h-2.423C15,32,14,31,14,30C14,30,14,29,17,29z"/><circle cx="17.5" cy="30.5" r="1.5" fill="#212121"/><path fill="#212121" d="M21,31c0,0-0.875-1-6.125-1H14c0-0.5,0-2,0-2s1.5,0,2,0C20,28,21,31,21,31z"/><polygon fill="#263238" points="14,26 20,28 22,28 19,26"/></g><g><linearGradient id="U_0pdsfFeoDt-JiPYWSvAb" x1="9.956" x2="38.032" y1="21" y2="21" gradientUnits="userSpaceOnUse"><stop offset="0" stop-color="#0d265b"/><stop offset="1" stop-color="#0c3194"/></linearGradient><path fill="url(#U_0pdsfFeoDt-JiPYWSvAb)" d="M36,15H14c0,0-2.431,1.818-3.269,2.786C10.258,18.332,10,19.027,10,19.75v4.457 c0,0.976-0.3,1.807,0.662,1.971C12.388,26.472,11.096,27,13,27c2,0,22,0,24,0c1.904,0-1.388-0.528,0.338-0.822 c0.962-0.164,0.643-0.996,0.643-1.971V19.75c0-0.723-0.258-1.418-0.731-1.964C36.411,16.818,36,15,36,15z"/><rect width="23" height="8" x="12" y="17" fill="#b2b2bc"/><path fill="#3d4144" d="M28.229,18.021c-0.195-0.195-0.512-0.195-0.707,0l-0.806,0.806C26.245,18.487,25.374,18,24.25,18 c-1.775,0-3.164,1.305-3.236,2.992l-0.974,2.314c-0.065,0.154-0.048,0.331,0.044,0.47C20.176,23.916,20.333,24,20.5,24h3.375 C24.697,24,26,23.423,26,21.875C26,20.789,25.369,20,24.5,20c-1.035,0-1.431,0.853-1.495,1.304 c-0.039,0.273,0.151,0.527,0.424,0.566c0.275,0.043,0.527-0.151,0.566-0.424C24.001,21.4,24.071,21,24.5,21 c0.328,0,0.5,0.44,0.5,0.875C25,22.969,23.886,23,23.875,23C22.718,23,22,22.282,22,21.125C22,20.081,22.842,19,24.25,19 c1.263,0,2.139,0.847,2.146,0.854c0.195,0.195,0.512,0.195,0.707,0l1.125-1.125C28.424,18.533,28.424,18.217,28.229,18.021z"/></g><g><linearGradient id="U_0pdsfFeoDt-JiPYWSvAc" x1="17" x2="17" y1="17" y2="15" gradientUnits="userSpaceOnUse"><stop offset="0" stop-color="#2a373e"/><stop offset="1" stop-color="#636f75"/></linearGradient><rect width="2" height="2" x="16" y="15" fill="url(#U_0pdsfFeoDt-JiPYWSvAc)"/><linearGradient id="U_0pdsfFeoDt-JiPYWSvAd" x1="31" x2="31" y1="17" y2="15" gradientUnits="userSpaceOnUse"><stop offset="0" stop-color="#2a373e"/><stop offset="1" stop-color="#636f75"/></linearGradient><rect width="2" height="2" x="30" y="15" fill="url(#U_0pdsfFeoDt-JiPYWSvAd)"/><linearGradient id="U_0pdsfFeoDt-JiPYWSvAe" x1="35" x2="35" y1="33" y2="15" gradientUnits="userSpaceOnUse"><stop offset="0" stop-color="#2a373e"/><stop offset="1" stop-color="#636f75"/></linearGradient><rect width="2" height="18" x="34" y="15" fill="url(#U_0pdsfFeoDt-JiPYWSvAe)"/><linearGradient id="U_0pdsfFeoDt-JiPYWSvAf" x1="13" x2="13" y1="33" y2="15" gradientUnits="userSpaceOnUse"><stop offset="0" stop-color="#2a373e"/><stop offset="1" stop-color="#636f75"/></linearGradient><rect width="2" height="18" x="12" y="15" fill="url(#U_0pdsfFeoDt-JiPYWSvAf)"/><linearGradient id="U_0pdsfFeoDt-JiPYWSvAg" x1="24" x2="24" y1="40" y2="0" gradientUnits="userSpaceOnUse"><stop offset="0" stop-color="#2a373e"/><stop offset="1" stop-color="#636f75"/></linearGradient><path fill="url(#U_0pdsfFeoDt-JiPYWSvAg)" d="M14,20c1,5,2,7,2,7s0-10,1-12c0,0,0,7,2,11c0-13,1-15,1-15s2.25,0.625,4,3c0,0,1-2,4-3 c0,0,1,4,1,16c0,0,2-8,2-12c0,0,1,5,1,12c0,0,2-4,2-10c0,0,2,7,2,21c0,0,2-5,2-11c0,0,1,5,1,13c0,0,1-4,1-11c0-10.625-3-18-3-18 s1.5,2,5,3c0,0-2.25-2.5-3-4c0,0,1.875-0.5,3-2c-3.875-0.25-6-1-6-1c2.625-1.25,4-3,4-3h-7c1-0.375,2-2,2-2s-3,1-5,1c2-1,4-3,4-3 s-8,2-11,2c1-1,1-2,1-2c-1.954,1.954-9.325,2.559-14,10c-2.503,3.983-4,10-4,19c0.052,7.146,1,11,1,11l1-8c0,0,0,2.625,1,7 c0-3,1-9,1-9s0,4,2,9C12,30.5,14,20,14,20z"/></g></svg>