<svg width="595.802" height="83.79" viewBox="0 0 595.802 83.79" xmlns="http://www.w3.org/2000/svg"><g id="svgGroup" stroke-linecap="round" fill-rule="nonzero" font-size="9pt" stroke="#00000000" stroke-width="0.25mm" fill="#e3a106" style="stroke:#00000000;stroke-width:0.25mm;fill:#e3a106"><path d="M 218.848 63.428 L 218.848 82.373 L 202.344 82.373 L 202.344 5.225 L 218.848 5.225 L 218.848 55.859 A 98.885 98.885 0 0 0 226.832 49.414 Q 230.762 45.898 234.327 42.017 A 106.104 106.104 0 0 0 240.943 34.082 Q 243.995 30.029 246.29 25.977 L 257.52 25.977 A 90.452 90.452 0 0 1 251.815 34.426 A 105.42 105.42 0 0 1 249.415 37.476 A 117.32 117.32 0 0 1 239.209 48.437 L 257.715 82.373 L 239.502 82.373 L 226.368 58.838 Q 222.706 61.328 218.848 63.428 Z M 426.758 29.492 L 418.409 33.008 A 25.187 25.187 0 0 0 416.291 28.034 A 23.041 23.041 0 0 0 415.796 27.197 Q 414.161 24.561 411.89 22.681 A 17.286 17.286 0 0 0 406.739 19.751 A 17.507 17.507 0 0 0 402.141 18.769 A 21.007 21.007 0 0 0 400.44 18.701 A 19.543 19.543 0 0 0 396.203 19.145 A 16.638 16.638 0 0 0 393.726 19.897 Q 390.674 21.094 388.257 23.193 Q 385.84 25.293 384.034 28.076 Q 382.227 30.859 381.006 34.009 A 34.209 34.209 0 0 0 379.2 40.527 A 38.644 38.644 0 0 0 378.616 46.716 A 35.603 35.603 0 0 0 378.614 47.119 A 44.365 44.365 0 0 0 379.81 57.324 Q 381.006 62.402 383.619 66.455 A 20.701 20.701 0 0 0 390.381 73.022 Q 394.532 75.537 400.44 75.537 A 16.6 16.6 0 0 0 406.348 74.487 A 18.258 18.258 0 0 0 411.402 71.606 Q 413.672 69.775 415.381 67.285 Q 417.09 64.795 418.116 61.914 L 426.563 65.283 Q 424.708 69.922 421.485 73.413 Q 418.262 76.904 414.136 79.199 Q 410.01 81.494 405.298 82.642 A 40.001 40.001 0 0 1 395.801 83.789 A 38.403 38.403 0 0 1 385.865 82.52 A 36.979 36.979 0 0 1 377.002 78.906 A 35.578 35.578 0 0 1 369.556 73.242 A 35.792 35.792 0 0 1 363.843 65.869 Q 361.475 61.816 360.181 57.056 A 37.72 37.72 0 0 1 358.887 47.119 A 37.72 37.72 0 0 1 360.181 37.183 Q 361.475 32.422 363.843 28.345 A 35.508 35.508 0 0 1 369.556 20.947 A 35.578 35.578 0 0 1 377.002 15.283 A 36.979 36.979 0 0 1 385.865 11.67 A 38.403 38.403 0 0 1 395.801 10.4 Q 400.782 10.4 405.542 11.572 Q 410.303 12.744 414.405 15.112 Q 418.506 17.48 421.705 21.069 A 26.722 26.722 0 0 1 426.273 28.303 A 30.796 30.796 0 0 1 426.758 29.492 Z M 271.583 25.977 L 283.643 25.977 A 90.962 90.962 0 0 0 281.59 33.122 A 99.399 99.399 0 0 0 281.47 33.618 A 114.858 114.858 0 0 0 279.859 41.577 A 115.07 115.07 0 0 0 278.834 49.365 A 82.29 82.29 0 0 0 278.537 53.48 A 65.02 65.02 0 0 0 278.467 56.445 A 48.338 48.338 0 0 0 278.534 58.931 A 59.133 59.133 0 0 0 278.638 60.522 A 36.239 36.239 0 0 0 279.249 64.868 Q 279.688 67.041 280.494 69.043 A 13.739 13.739 0 0 0 281.963 71.785 A 12.361 12.361 0 0 0 282.569 72.583 A 9.309 9.309 0 0 0 285.669 75.024 A 8.525 8.525 0 0 0 288.007 75.767 A 11.683 11.683 0 0 0 289.991 75.928 Q 292.432 75.928 294.361 74.829 Q 296.29 73.73 297.754 71.948 A 17.401 17.401 0 0 0 299.845 68.714 A 20.059 20.059 0 0 0 300.245 67.871 A 32.489 32.489 0 0 0 301.929 63.159 A 37.618 37.618 0 0 0 302.821 59.004 A 34.075 34.075 0 0 0 302.906 58.423 Q 303.202 56.258 303.222 54.497 A 22.24 22.24 0 0 0 303.223 54.248 L 303.223 25.977 L 319.727 25.977 L 319.727 82.373 L 313.379 82.373 L 305.811 69.238 A 28.623 28.623 0 0 1 302.866 74.496 A 26.341 26.341 0 0 1 302.369 75.171 A 22.696 22.696 0 0 1 297.754 79.736 A 20.116 20.116 0 0 1 292.017 82.666 A 21.101 21.101 0 0 1 286.894 83.635 A 24.939 24.939 0 0 1 285.206 83.691 A 30.568 30.568 0 0 1 280.368 83.327 Q 277.536 82.873 275.154 81.853 A 19.213 19.213 0 0 1 275 81.787 A 20.353 20.353 0 0 1 269.408 78.2 A 18.882 18.882 0 0 1 267.774 76.514 Q 264.893 73.145 263.477 68.481 A 32.748 32.748 0 0 1 262.228 61.972 A 40.339 40.339 0 0 1 262.061 58.252 A 49.73 49.73 0 0 1 262.48 51.918 A 56.749 56.749 0 0 1 262.72 50.244 Q 263.379 46.094 264.625 41.943 A 74.146 74.146 0 0 1 267.627 33.74 Q 269.385 29.688 271.583 25.977 Z M 473.926 25.977 L 485.987 25.977 A 90.962 90.962 0 0 0 483.934 33.122 A 99.399 99.399 0 0 0 483.814 33.618 A 114.858 114.858 0 0 0 482.203 41.577 A 115.07 115.07 0 0 0 481.177 49.365 A 82.29 82.29 0 0 0 480.881 53.48 A 65.02 65.02 0 0 0 480.811 56.445 A 48.338 48.338 0 0 0 480.878 58.931 A 59.133 59.133 0 0 0 480.982 60.522 A 36.239 36.239 0 0 0 481.592 64.868 Q 482.032 67.041 482.837 69.043 A 13.739 13.739 0 0 0 484.307 71.785 A 12.361 12.361 0 0 0 484.913 72.583 A 9.309 9.309 0 0 0 488.013 75.024 A 8.525 8.525 0 0 0 490.351 75.767 A 11.683 11.683 0 0 0 492.334 75.928 Q 494.776 75.928 496.705 74.829 Q 498.633 73.73 500.098 71.948 A 17.401 17.401 0 0 0 502.188 68.714 A 20.059 20.059 0 0 0 502.588 67.871 A 32.489 32.489 0 0 0 504.273 63.159 A 37.618 37.618 0 0 0 505.165 59.004 A 34.075 34.075 0 0 0 505.25 58.423 Q 505.546 56.258 505.565 54.497 A 22.24 22.24 0 0 0 505.567 54.248 L 505.567 25.977 L 522.071 25.977 L 522.071 82.373 L 515.723 82.373 L 508.155 69.238 A 28.623 28.623 0 0 1 505.209 74.496 A 26.341 26.341 0 0 1 504.712 75.171 A 22.696 22.696 0 0 1 500.098 79.736 A 20.116 20.116 0 0 1 494.361 82.666 A 21.101 21.101 0 0 1 489.238 83.635 A 24.939 24.939 0 0 1 487.549 83.691 A 30.568 30.568 0 0 1 482.712 83.327 Q 479.88 82.873 477.497 81.853 A 19.213 19.213 0 0 1 477.344 81.787 A 20.353 20.353 0 0 1 471.751 78.2 A 18.882 18.882 0 0 1 470.118 76.514 Q 467.237 73.145 465.821 68.481 A 32.748 32.748 0 0 1 464.572 61.972 A 40.339 40.339 0 0 1 464.405 58.252 A 49.73 49.73 0 0 1 464.823 51.918 A 56.749 56.749 0 0 1 465.064 50.244 Q 465.723 46.094 466.968 41.943 A 74.146 74.146 0 0 1 469.971 33.74 Q 471.729 29.688 473.926 25.977 Z M 549.512 70.117 L 542.188 82.373 L 535.84 82.373 L 535.84 5.225 L 552.344 5.225 L 552.344 32.715 A 19.221 19.221 0 0 1 556.188 28.703 A 16.785 16.785 0 0 1 559.4 26.758 A 20.941 20.941 0 0 1 567.086 24.891 A 24.705 24.705 0 0 1 568.458 24.854 A 30.981 30.981 0 0 1 574.875 25.492 A 24.827 24.827 0 0 1 579.981 27.148 A 25.288 25.288 0 0 1 588.353 33.153 A 24.623 24.623 0 0 1 588.575 33.398 A 26.92 26.92 0 0 1 593.552 41.648 A 31.134 31.134 0 0 1 593.946 42.725 A 34.364 34.364 0 0 1 595.756 52.345 A 39.636 39.636 0 0 1 595.801 54.248 Q 595.801 60.4 593.946 65.771 A 28.127 28.127 0 0 1 590.033 73.314 A 26.041 26.041 0 0 1 588.575 75.122 A 25.09 25.09 0 0 1 579.981 81.396 A 25.67 25.67 0 0 1 572.727 83.42 A 32.608 32.608 0 0 1 568.458 83.691 A 19.706 19.706 0 0 1 562.232 82.715 A 19.801 19.801 0 0 1 556.812 79.956 Q 554.346 78.174 552.466 75.684 Q 550.586 73.193 549.512 70.117 Z M 579.053 54.248 A 47.192 47.192 0 0 0 578.967 51.458 A 56.636 56.636 0 0 0 578.834 49.683 A 37.391 37.391 0 0 0 578.077 44.873 Q 577.54 42.48 576.587 40.283 A 15.178 15.178 0 0 0 574.702 37.051 A 13.89 13.89 0 0 0 574.17 36.401 A 10.998 10.998 0 0 0 570.655 33.716 A 9.582 9.582 0 0 0 568.116 32.906 A 13.107 13.107 0 0 0 565.821 32.715 A 10.485 10.485 0 0 0 563.282 33.011 A 8.66 8.66 0 0 0 561.304 33.765 A 11.711 11.711 0 0 0 557.837 36.572 A 16.971 16.971 0 0 0 555.586 40.022 A 19.154 19.154 0 0 0 555.323 40.576 A 29.147 29.147 0 0 0 553.663 45.215 A 35.758 35.758 0 0 0 552.735 49.951 A 40.163 40.163 0 0 0 552.515 52.197 A 30.195 30.195 0 0 0 552.442 54.248 A 49.251 49.251 0 0 0 552.546 57.385 A 58.011 58.011 0 0 0 552.662 58.887 A 38.13 38.13 0 0 0 553.418 63.745 Q 553.956 66.162 554.908 68.335 A 14.693 14.693 0 0 0 557.257 72.087 A 13.937 13.937 0 0 0 557.349 72.192 Q 558.838 73.877 560.914 74.854 A 9.93 9.93 0 0 0 563.449 75.636 A 13.816 13.816 0 0 0 565.821 75.83 A 12.661 12.661 0 0 0 568.315 75.595 A 9.7 9.7 0 0 0 570.63 74.829 A 10.92 10.92 0 0 0 574.17 72.144 A 14.477 14.477 0 0 0 576.277 68.918 A 16.647 16.647 0 0 0 576.587 68.237 Q 577.54 66.016 578.077 63.623 A 37.391 37.391 0 0 0 578.834 58.813 A 54.132 54.132 0 0 0 579.022 55.897 A 45.06 45.06 0 0 0 579.053 54.248 Z M 108.838 32.52 L 108.838 82.373 L 92.286 82.373 L 92.286 32.52 L 82.032 32.52 L 82.032 25.977 L 92.286 25.977 L 92.286 5.225 L 108.838 5.225 L 108.838 25.977 L 125.928 25.977 L 125.928 32.52 L 108.838 32.52 Z M 76.37 55.908 A 34.546 34.546 0 0 1 74.317 62.427 A 33.514 33.514 0 0 1 67.47 72.758 A 32.126 32.126 0 0 1 66.211 73.975 A 35.441 35.441 0 0 1 55.266 80.755 A 40.941 40.941 0 0 1 53.956 81.25 A 43.783 43.783 0 0 1 41.928 83.684 A 51.438 51.438 0 0 1 38.624 83.789 A 47.173 47.173 0 0 1 27.86 82.596 A 41.49 41.49 0 0 1 23.292 81.25 A 36.722 36.722 0 0 1 13.566 76.074 A 33.876 33.876 0 0 1 11.036 73.975 A 33.103 33.103 0 0 1 3.115 62.85 A 37.894 37.894 0 0 1 2.93 62.427 A 35.936 35.936 0 0 1 0.294 52.327 A 45.026 45.026 0 0 1 0 47.119 A 44.07 44.07 0 0 1 0.773 38.693 A 34.803 34.803 0 0 1 2.906 31.665 A 33.313 33.313 0 0 1 9.258 21.823 A 31.599 31.599 0 0 1 10.962 20.142 A 34.993 34.993 0 0 1 21.668 13.491 A 40.621 40.621 0 0 1 23.194 12.915 A 43.968 43.968 0 0 1 34.528 10.558 A 52.478 52.478 0 0 1 38.624 10.4 A 48.588 48.588 0 0 1 48.8 11.432 A 41.754 41.754 0 0 1 54.053 12.915 A 36.505 36.505 0 0 1 63.5 17.858 A 33.407 33.407 0 0 1 66.285 20.142 A 32.707 32.707 0 0 1 74.111 31.136 A 37.643 37.643 0 0 1 74.341 31.665 A 35.911 35.911 0 0 1 76.871 41.144 A 46.073 46.073 0 0 1 77.247 47.119 A 42.404 42.404 0 0 1 76.37 55.908 Z M 57.52 47.119 A 76.093 76.093 0 0 0 57.227 40.527 A 42.872 42.872 0 0 0 56.153 33.984 Q 55.372 30.811 54.029 28.027 A 17.389 17.389 0 0 0 50.586 23.169 Q 48.487 21.094 45.533 19.897 Q 42.622 18.719 38.739 18.701 A 25.996 25.996 0 0 0 38.624 18.701 A 22.721 22.721 0 0 0 35.316 18.93 Q 33.473 19.202 31.905 19.795 A 13.954 13.954 0 0 0 31.641 19.897 A 16.087 16.087 0 0 0 28.035 21.891 A 14.249 14.249 0 0 0 26.563 23.145 A 16.651 16.651 0 0 0 23.145 27.979 A 30.419 30.419 0 0 0 21.07 33.911 A 44.261 44.261 0 0 0 20.02 40.454 A 77.481 77.481 0 0 0 19.727 47.119 A 76.093 76.093 0 0 0 20.02 53.711 A 42.229 42.229 0 0 0 21.094 60.229 A 30.523 30.523 0 0 0 23.218 66.162 A 17.389 17.389 0 0 0 26.661 71.021 Q 28.76 73.096 31.714 74.316 Q 34.625 75.519 38.508 75.537 A 25.481 25.481 0 0 0 38.624 75.537 A 20.219 20.219 0 0 0 41.919 75.281 A 14.677 14.677 0 0 0 45.362 74.292 Q 48.243 73.047 50.342 70.923 A 18.883 18.883 0 0 0 53.834 65.991 A 30.255 30.255 0 0 0 56.031 60.034 A 44.423 44.423 0 0 0 57.178 53.564 A 63.738 63.738 0 0 0 57.515 47.903 A 57.821 57.821 0 0 0 57.52 47.119 Z M 188.575 25.977 L 188.575 82.373 L 172.071 82.373 L 172.071 75.635 A 19.328 19.328 0 0 1 167.97 79.808 A 17.241 17.241 0 0 1 165.015 81.567 A 20.756 20.756 0 0 1 157.216 83.464 A 24.459 24.459 0 0 1 155.958 83.496 A 30.981 30.981 0 0 1 149.54 82.858 A 24.827 24.827 0 0 1 144.434 81.201 A 25.09 25.09 0 0 1 135.84 74.927 A 27.221 27.221 0 0 1 130.832 66.571 A 31.324 31.324 0 0 1 130.469 65.576 A 34.364 34.364 0 0 1 128.659 55.956 A 39.636 39.636 0 0 1 128.614 54.053 Q 128.614 47.9 130.469 42.529 A 28.127 28.127 0 0 1 134.382 34.986 A 26.041 26.041 0 0 1 135.84 33.179 A 25.09 25.09 0 0 1 144.434 26.904 A 25.67 25.67 0 0 1 151.688 24.881 A 32.608 32.608 0 0 1 155.958 24.609 A 19.706 19.706 0 0 1 162.183 25.586 A 19.801 19.801 0 0 1 167.603 28.345 A 20.135 20.135 0 0 1 171.949 32.642 A 20.632 20.632 0 0 1 174.903 38.232 L 182.227 25.977 L 188.575 25.977 Z M 171.973 54.053 A 49.251 49.251 0 0 0 171.869 50.916 A 58.011 58.011 0 0 0 171.753 49.414 A 37.317 37.317 0 0 0 170.997 44.58 Q 170.459 42.188 169.507 40.015 A 14.693 14.693 0 0 0 167.158 36.263 A 13.937 13.937 0 0 0 167.066 36.157 Q 165.577 34.473 163.477 33.496 A 10.252 10.252 0 0 0 160.743 32.681 A 13.735 13.735 0 0 0 158.594 32.52 A 13.033 13.033 0 0 0 156.222 32.725 A 9.543 9.543 0 0 0 153.76 33.521 Q 151.709 34.521 150.245 36.206 A 14.704 14.704 0 0 0 148.042 39.613 A 16.708 16.708 0 0 0 147.828 40.088 Q 146.875 42.285 146.338 44.678 A 37.391 37.391 0 0 0 145.582 49.487 A 54.132 54.132 0 0 0 145.393 52.404 A 45.06 45.06 0 0 0 145.362 54.053 A 47.674 47.674 0 0 0 145.448 56.853 A 58.063 58.063 0 0 0 145.582 58.643 A 37.317 37.317 0 0 0 146.338 63.477 Q 146.875 65.869 147.828 68.066 A 15.178 15.178 0 0 0 149.713 71.299 A 13.89 13.89 0 0 0 150.245 71.948 A 10.998 10.998 0 0 0 153.76 74.634 A 9.582 9.582 0 0 0 156.299 75.443 A 13.107 13.107 0 0 0 158.594 75.635 A 10.485 10.485 0 0 0 161.134 75.338 A 8.66 8.66 0 0 0 163.111 74.585 A 11.711 11.711 0 0 0 166.578 71.777 A 16.971 16.971 0 0 0 168.829 68.327 A 19.154 19.154 0 0 0 169.092 67.773 A 29.147 29.147 0 0 0 170.752 63.135 A 35.595 35.595 0 0 0 171.68 58.374 A 41.141 41.141 0 0 0 171.9 56.11 A 30.463 30.463 0 0 0 171.973 54.053 Z M 453.516 17.139 L 453.516 82.373 L 437.012 82.373 L 437.012 0 L 443.36 0 L 453.516 17.139 Z"/></g></svg>